<?xml version="1.0" encoding="utf-8"?>
<!-- Generator: Adobe Illustrator 15.0.2, SVG Export Plug-In . SVG Version: 6.00 Build 0)  -->
<!DOCTYPE svg PUBLIC "-//W3C//DTD SVG 1.1//EN" "http://www.w3.org/Graphics/SVG/1.1/DTD/svg11.dtd">
<svg version="1.1" id="Layer_1" xmlns="http://www.w3.org/2000/svg" xmlns:xlink="http://www.w3.org/1999/xlink" x="0px" y="0px"
	 width="153px" height="67.813px" viewBox="0 0 153 67.813" enable-background="new 0 0 153 67.813" xml:space="preserve">
<g>
	<g>
		<path fill="#EC145A" d="M19.893,40.221c-2.854,0-5.492-0.462-7.91-1.385c-2.419-0.921-4.517-2.218-6.291-3.891
			c-1.775-1.67-3.169-3.664-4.176-5.977C0.504,26.653,0,24.104,0,21.319v-0.104c0-2.646,0.492-5.125,1.48-7.439
			c0.987-2.315,2.345-4.334,4.078-6.057C7.29,5.994,9.364,4.646,11.779,3.67c2.413-0.974,5.034-1.462,7.853-1.462
			c3.238,0,6.03,0.47,8.379,1.411c2.35,0.939,4.5,2.244,6.45,3.915l-5.954,7.155c-1.323-1.114-2.672-1.967-4.046-2.558
			c-1.376-0.591-2.968-0.888-4.776-0.888c-1.325,0-2.551,0.259-3.681,0.782c-1.133,0.523-2.117,1.236-2.951,2.141
			c-0.833,0.906-1.496,1.967-1.985,3.185c-0.488,1.219-0.73,2.524-0.73,3.916v0.105c0,1.462,0.243,2.82,0.734,4.074
			c0.488,1.251,1.178,2.322,2.068,3.21c0.892,0.886,1.937,1.584,3.145,2.089c1.204,0.505,2.54,0.756,4.005,0.756
			c2.376,0,4.333-0.503,5.867-1.513v-4.439h-7.203v-7.414h16.813v16.447c-1.949,1.603-4.247,2.943-6.895,4.021
			C26.228,39.68,23.235,40.221,19.893,40.221"/>
		<path fill="#EC145A" d="M56.829,21.111c1.808,0,3.228-0.428,4.255-1.286c1.024-0.857,1.54-2.021,1.54-3.493v-0.105
			c0-1.573-0.515-2.771-1.54-3.594c-1.028-0.822-2.464-1.234-4.307-1.234h-4.753v9.713H56.829z M41.895,2.939h15.664
			c2.298,0,4.384,0.289,6.266,0.863c1.881,0.573,3.481,1.408,4.803,2.505c1.324,1.096,2.341,2.446,3.056,4.046
			c0.713,1.602,1.07,3.412,1.07,5.431v0.105c0,2.157-0.392,4.054-1.175,5.691c-0.782,1.635-1.872,3.01-3.263,4.125
			c-1.393,1.112-3.055,1.95-4.987,2.505c-1.932,0.556-4.028,0.835-6.291,0.835h-5.013V39.49h-10.13V2.939z"/>
		<path fill="#EC145A" d="M91.691,21.111c1.811,0,3.228-0.428,4.256-1.286c1.026-0.857,1.541-2.021,1.541-3.493v-0.105
			c0-1.573-0.515-2.771-1.541-3.594c-1.028-0.822-2.464-1.234-4.306-1.234h-4.754v9.713H91.691z M76.759,2.939H92.42
			c2.3,0,4.386,0.289,6.268,0.863c1.881,0.573,3.481,1.408,4.802,2.505c1.325,1.096,2.343,2.446,3.058,4.046
			c0.713,1.602,1.07,3.412,1.07,5.431v0.105c0,2.157-0.394,4.054-1.177,5.691c-0.782,1.635-1.869,3.01-3.262,4.125
			c-1.393,1.112-3.058,1.95-4.986,2.505c-1.933,0.556-4.031,0.835-6.293,0.835h-5.013V39.49H76.759V2.939z"/>
		<rect x="110.706" y="12.311" fill="#EC145A" width="9.974" height="27.179"/>
		<path fill="#EC145A" d="M120.9,5.205c0-2.875-2.332-5.205-5.206-5.205s-5.206,2.329-5.206,5.205c0,2.874,2.332,5.205,5.206,5.205
			S120.9,8.079,120.9,5.205"/>
	</g>
	<g>
		<path fill="#EC145A" d="M45.468,57.634c-0.463,0-0.886-0.077-1.269-0.23c-0.382-0.151-0.71-0.364-0.986-0.636
			c-0.274-0.272-0.487-0.594-0.641-0.97c-0.153-0.373-0.229-0.78-0.229-1.221v-0.017c0-0.426,0.077-0.823,0.233-1.194
			s0.374-0.695,0.65-0.976c0.277-0.28,0.605-0.501,0.984-0.661c0.38-0.162,0.796-0.243,1.25-0.243c0.267,0,0.508,0.019,0.725,0.056
			c0.216,0.036,0.419,0.089,0.608,0.157c0.186,0.067,0.361,0.152,0.525,0.255c0.165,0.1,0.323,0.218,0.477,0.348l-0.824,0.992
			c-0.114-0.095-0.228-0.181-0.34-0.254c-0.114-0.073-0.232-0.136-0.354-0.186c-0.122-0.052-0.252-0.092-0.395-0.119
			c-0.141-0.029-0.297-0.044-0.466-0.044c-0.238,0-0.458,0.051-0.666,0.15c-0.206,0.099-0.388,0.231-0.546,0.399
			c-0.153,0.166-0.275,0.362-0.363,0.585c-0.087,0.227-0.13,0.467-0.13,0.721v0.018c0,0.271,0.043,0.523,0.13,0.752
			c0.088,0.23,0.213,0.432,0.374,0.602c0.159,0.17,0.351,0.302,0.569,0.395c0.217,0.094,0.459,0.142,0.724,0.142
			c0.488,0,0.898-0.12,1.232-0.358v-0.857h-1.315V54.11h2.579v2.582c-0.306,0.261-0.669,0.482-1.089,0.667
			C46.497,57.542,46.012,57.634,45.468,57.634"/>
		<polygon fill="#EC145A" points="49.535,51.588 50.843,51.588 50.843,56.352 53.808,56.352 53.808,57.533 49.535,57.533 		"/>
		<g>
			<path fill="#EC145A" d="M57.702,56.428c0.259,0,0.503-0.049,0.723-0.144c0.22-0.097,0.409-0.23,0.563-0.4
				c0.155-0.169,0.277-0.365,0.365-0.588c0.087-0.227,0.133-0.465,0.133-0.719v-0.017c0-0.255-0.046-0.495-0.133-0.723
				c-0.088-0.225-0.211-0.425-0.374-0.594c-0.161-0.169-0.351-0.304-0.573-0.402c-0.218-0.1-0.46-0.15-0.72-0.15
				c-0.266,0-0.508,0.049-0.728,0.144c-0.217,0.097-0.403,0.23-0.558,0.4c-0.158,0.17-0.28,0.366-0.367,0.59
				c-0.089,0.225-0.132,0.463-0.132,0.719v0.017c0,0.255,0.042,0.495,0.132,0.721c0.087,0.228,0.213,0.425,0.375,0.595
				c0.16,0.17,0.35,0.305,0.566,0.404C57.193,56.378,57.436,56.428,57.702,56.428 M57.686,57.634c-0.459,0-0.882-0.082-1.268-0.244
				c-0.385-0.159-0.715-0.377-0.995-0.653c-0.281-0.271-0.499-0.597-0.654-0.967c-0.156-0.37-0.236-0.768-0.236-1.192v-0.017
				c0-0.426,0.08-0.823,0.239-1.194c0.159-0.371,0.377-0.695,0.658-0.976c0.281-0.28,0.615-0.501,1.001-0.661
				c0.391-0.162,0.811-0.243,1.27-0.243c0.46,0,0.88,0.081,1.265,0.243c0.385,0.16,0.718,0.377,0.999,0.653
				c0.279,0.272,0.497,0.597,0.65,0.968c0.157,0.371,0.236,0.769,0.236,1.193v0.017c0,0.424-0.08,0.821-0.236,1.192
				c-0.16,0.371-0.379,0.695-0.659,0.976c-0.283,0.281-0.614,0.502-1.001,0.661C58.565,57.552,58.143,57.634,57.686,57.634"/>
			<path fill="#EC145A" d="M65.043,56.388c0.288,0,0.514-0.054,0.677-0.158c0.165-0.105,0.248-0.268,0.248-0.488v-0.019
				c0-0.198-0.076-0.354-0.229-0.472c-0.155-0.115-0.401-0.174-0.74-0.174h-1.511v1.311H65.043z M64.695,53.992
				c0.287,0,0.516-0.05,0.686-0.147c0.17-0.101,0.256-0.262,0.256-0.482v-0.015c0-0.198-0.076-0.352-0.222-0.456
				c-0.148-0.104-0.361-0.155-0.636-0.155h-1.292v1.256H64.695z M62.215,51.588h2.754c0.683,0,1.201,0.176,1.549,0.527
				c0.275,0.271,0.408,0.608,0.408,1.01v0.018c0,0.169-0.02,0.319-0.064,0.449c-0.041,0.132-0.098,0.249-0.168,0.353
				c-0.071,0.105-0.15,0.197-0.245,0.276c-0.092,0.079-0.192,0.146-0.298,0.202c0.345,0.132,0.614,0.31,0.812,0.531
				c0.196,0.224,0.294,0.534,0.294,0.93v0.017c0,0.273-0.05,0.511-0.156,0.713c-0.105,0.205-0.253,0.376-0.449,0.511
				c-0.196,0.136-0.43,0.237-0.704,0.305c-0.274,0.068-0.578,0.104-0.912,0.104h-2.822V51.588z"/>
		</g>
		<path fill="#EC145A" d="M71.848,55.044l-0.788-1.928l-0.79,1.928H71.848z M70.475,51.546h1.206l2.545,5.986H72.86l-0.543-1.334
			h-2.514l-0.542,1.334h-1.333L70.475,51.546z"/>
		<polygon fill="#EC145A" points="75.298,51.588 76.606,51.588 76.606,56.352 79.569,56.352 79.569,57.533 75.298,57.533 		"/>
		<g>
			<path fill="#EC145A" d="M85.613,54.586c0.331,0,0.585-0.087,0.766-0.26s0.271-0.387,0.271-0.641V53.67
				c0-0.296-0.094-0.519-0.282-0.672c-0.193-0.152-0.45-0.229-0.778-0.229h-1.012v1.817H85.613z M83.271,51.588h2.428
				c0.356,0,0.677,0.05,0.954,0.148c0.28,0.1,0.519,0.239,0.715,0.422c0.195,0.18,0.344,0.396,0.449,0.647
				c0.104,0.252,0.159,0.531,0.159,0.838v0.016c0,0.345-0.063,0.648-0.188,0.909c-0.125,0.26-0.297,0.479-0.514,0.655
				c-0.219,0.173-0.475,0.305-0.766,0.394c-0.291,0.088-0.604,0.132-0.938,0.132h-0.993v1.783h-1.307V51.588z"/>
			<path fill="#EC145A" d="M91.637,57.625c-0.798,0-1.427-0.221-1.884-0.661c-0.46-0.441-0.689-1.1-0.689-1.979v-3.396h1.307v3.362
				c0,0.485,0.113,0.854,0.341,1.1c0.227,0.246,0.541,0.37,0.942,0.37c0.403,0,0.717-0.12,0.942-0.357
				c0.227-0.238,0.34-0.594,0.34-1.069v-3.405h1.308v3.354c0,0.454-0.06,0.847-0.184,1.18c-0.12,0.335-0.296,0.612-0.521,0.838
				c-0.225,0.223-0.502,0.391-0.822,0.501C92.393,57.571,92.032,57.625,91.637,57.625"/>
			<path fill="#EC145A" d="M98.679,56.388c0.289,0,0.516-0.054,0.679-0.158c0.163-0.105,0.248-0.268,0.248-0.488v-0.019
				c0-0.198-0.079-0.354-0.233-0.472c-0.151-0.115-0.396-0.174-0.736-0.174h-1.511v1.311H98.679z M98.33,53.992
				c0.289,0,0.517-0.05,0.688-0.147c0.172-0.101,0.255-0.262,0.255-0.482v-0.015c0-0.198-0.075-0.352-0.219-0.456
				c-0.15-0.104-0.361-0.155-0.639-0.155h-1.29v1.256H98.33z M95.851,51.588h2.754c0.685,0,1.202,0.176,1.55,0.527
				c0.272,0.271,0.408,0.608,0.408,1.01v0.018c0,0.169-0.021,0.319-0.063,0.449c-0.042,0.132-0.098,0.249-0.17,0.353
				c-0.069,0.105-0.149,0.197-0.244,0.276c-0.093,0.079-0.191,0.146-0.299,0.202c0.344,0.132,0.615,0.31,0.813,0.531
				c0.197,0.224,0.296,0.534,0.296,0.93v0.017c0,0.273-0.055,0.511-0.157,0.713c-0.104,0.205-0.254,0.376-0.449,0.511
				c-0.197,0.136-0.43,0.237-0.704,0.305c-0.272,0.068-0.575,0.104-0.911,0.104h-2.822V51.588z"/>
		</g>
		<polygon fill="#EC145A" points="102.233,51.588 103.541,51.588 103.541,56.352 106.504,56.352 106.504,57.533 102.233,57.533 		
			"/>
		<rect x="107.631" y="51.588" fill="#EC145A" width="1.312" height="5.942"/>
		<g>
			<path fill="#EC145A" d="M113.406,57.634c-0.437,0-0.84-0.08-1.213-0.238c-0.375-0.158-0.696-0.376-0.969-0.649
				c-0.271-0.274-0.482-0.599-0.635-0.974c-0.153-0.371-0.23-0.771-0.23-1.195v-0.017c0-0.426,0.077-0.823,0.23-1.194
				c0.152-0.371,0.363-0.695,0.635-0.976c0.272-0.28,0.598-0.501,0.977-0.661c0.379-0.162,0.799-0.243,1.256-0.243
				c0.278,0,0.532,0.022,0.761,0.068c0.23,0.046,0.437,0.108,0.623,0.187c0.188,0.08,0.362,0.175,0.52,0.289
				c0.159,0.113,0.305,0.237,0.439,0.372l-0.83,0.959c-0.232-0.208-0.469-0.372-0.71-0.49c-0.238-0.118-0.509-0.18-0.813-0.18
				c-0.247,0-0.478,0.049-0.689,0.144c-0.21,0.097-0.396,0.23-0.548,0.4c-0.153,0.17-0.271,0.366-0.358,0.59
				c-0.083,0.225-0.125,0.463-0.125,0.719v0.017c0,0.255,0.042,0.495,0.125,0.721c0.088,0.228,0.204,0.425,0.355,0.595
				c0.148,0.17,0.33,0.305,0.544,0.404c0.213,0.098,0.443,0.147,0.696,0.147c0.344,0,0.629-0.063,0.865-0.187
				c0.234-0.125,0.468-0.294,0.699-0.51l0.834,0.84c-0.154,0.165-0.313,0.313-0.478,0.442c-0.162,0.13-0.343,0.242-0.538,0.336
				c-0.196,0.092-0.409,0.162-0.643,0.211C113.958,57.61,113.695,57.634,113.406,57.634"/>
			<path fill="#EC145A" d="M121.947,54.586c0.329,0,0.585-0.087,0.766-0.26s0.271-0.387,0.271-0.641V53.67
				c0-0.296-0.093-0.519-0.284-0.672c-0.188-0.152-0.449-0.229-0.777-0.229h-1.011v1.817H121.947z M119.604,51.588h2.429
				c0.356,0,0.674,0.05,0.955,0.148c0.28,0.1,0.519,0.239,0.712,0.422c0.194,0.18,0.347,0.396,0.451,0.647
				c0.104,0.252,0.156,0.531,0.156,0.838v0.016c0,0.345-0.061,0.648-0.186,0.909c-0.125,0.26-0.297,0.479-0.516,0.655
				c-0.217,0.173-0.472,0.305-0.764,0.394c-0.289,0.088-0.604,0.132-0.936,0.132h-0.996v1.783h-1.307V51.588z"/>
			<path fill="#EC145A" d="M128.411,56.428c0.261,0,0.502-0.049,0.722-0.144c0.225-0.097,0.41-0.23,0.565-0.4
				c0.155-0.169,0.274-0.365,0.364-0.588c0.088-0.227,0.133-0.465,0.133-0.719v-0.017c0-0.255-0.045-0.495-0.133-0.723
				c-0.09-0.225-0.211-0.425-0.372-0.594s-0.354-0.304-0.575-0.402c-0.219-0.1-0.46-0.15-0.72-0.15
				c-0.265,0-0.506,0.049-0.728,0.144c-0.215,0.097-0.402,0.23-0.558,0.4c-0.158,0.17-0.28,0.366-0.366,0.59
				c-0.089,0.225-0.131,0.463-0.131,0.719v0.017c0,0.255,0.042,0.495,0.131,0.721c0.086,0.228,0.211,0.425,0.374,0.595
				c0.161,0.17,0.35,0.305,0.567,0.404C127.903,56.378,128.146,56.428,128.411,56.428 M128.395,57.634
				c-0.459,0-0.882-0.082-1.267-0.244c-0.384-0.159-0.715-0.377-0.995-0.653c-0.28-0.271-0.5-0.597-0.655-0.967
				s-0.234-0.768-0.234-1.192v-0.017c0-0.426,0.079-0.823,0.238-1.194c0.16-0.371,0.379-0.695,0.659-0.976
				c0.277-0.28,0.613-0.501,1.002-0.661c0.388-0.162,0.81-0.243,1.268-0.243c0.459,0,0.881,0.081,1.265,0.243
				c0.385,0.16,0.721,0.377,0.999,0.653c0.28,0.272,0.498,0.597,0.652,0.968c0.158,0.371,0.235,0.769,0.235,1.193v0.017
				c0,0.424-0.08,0.821-0.235,1.192c-0.161,0.371-0.379,0.695-0.66,0.976c-0.28,0.281-0.615,0.502-1.002,0.661
				C129.276,57.552,128.853,57.634,128.395,57.634"/>
		</g>
		<polygon fill="#EC145A" points="132.924,51.588 134.233,51.588 134.233,56.352 137.194,56.352 137.194,57.533 132.924,57.533 		
			"/>
		<rect x="138.325" y="51.588" fill="#EC145A" width="1.308" height="5.942"/>
		<g>
			<path fill="#EC145A" d="M144.096,57.634c-0.436,0-0.841-0.08-1.213-0.238c-0.374-0.158-0.696-0.376-0.969-0.649
				c-0.271-0.274-0.483-0.599-0.635-0.974c-0.153-0.371-0.232-0.771-0.232-1.195v-0.017c0-0.426,0.079-0.823,0.232-1.194
				c0.151-0.371,0.363-0.695,0.635-0.976c0.272-0.28,0.598-0.501,0.975-0.661c0.38-0.162,0.801-0.243,1.259-0.243
				c0.275,0,0.529,0.022,0.758,0.068c0.23,0.046,0.44,0.108,0.628,0.187c0.186,0.08,0.357,0.175,0.517,0.289
				c0.157,0.113,0.304,0.237,0.442,0.372l-0.832,0.959c-0.233-0.208-0.469-0.372-0.71-0.49s-0.511-0.18-0.812-0.18
				c-0.248,0-0.479,0.049-0.69,0.144c-0.213,0.097-0.396,0.23-0.55,0.4c-0.152,0.17-0.271,0.366-0.356,0.59
				c-0.083,0.225-0.127,0.463-0.127,0.719v0.017c0,0.255,0.044,0.495,0.127,0.721c0.086,0.228,0.203,0.425,0.354,0.595
				c0.148,0.17,0.332,0.305,0.544,0.404c0.212,0.098,0.445,0.147,0.699,0.147c0.34,0,0.628-0.063,0.864-0.187
				c0.232-0.125,0.466-0.294,0.699-0.51l0.831,0.84c-0.154,0.165-0.313,0.313-0.476,0.442c-0.164,0.13-0.345,0.242-0.54,0.336
				c-0.195,0.092-0.408,0.162-0.64,0.211C144.646,57.61,144.386,57.634,144.096,57.634"/>
		</g>
		<polygon fill="#EC145A" points="151.516,51.588 150.072,53.974 148.654,51.588 147.125,51.588 149.409,55.189 149.409,57.531 
			150.718,57.531 150.718,55.163 153,51.588 		"/>
		<rect x="42.667" y="61.777" fill="#EC145A" width="1.307" height="5.942"/>
		<polygon fill="#EC145A" points="49.668,61.777 49.668,65.436 46.884,61.777 45.678,61.777 45.678,67.72 46.97,67.72 46.97,63.943 
			49.849,67.72 50.959,67.72 50.959,61.777 		"/>
		<g>
			<path fill="#EC145A" d="M54.733,67.805c-0.452,0-0.897-0.078-1.333-0.233c-0.436-0.156-0.832-0.395-1.189-0.717l0.774-0.927
				c0.27,0.221,0.55,0.396,0.835,0.527c0.286,0.13,0.599,0.193,0.938,0.193c0.271,0,0.483-0.048,0.633-0.146
				c0.148-0.1,0.225-0.235,0.225-0.412v-0.018c0-0.085-0.017-0.16-0.047-0.225c-0.031-0.064-0.091-0.127-0.178-0.182
				c-0.091-0.058-0.21-0.114-0.366-0.171c-0.157-0.057-0.361-0.117-0.61-0.178c-0.301-0.075-0.573-0.157-0.817-0.247
				c-0.244-0.09-0.451-0.202-0.62-0.336c-0.17-0.132-0.303-0.298-0.398-0.494c-0.092-0.199-0.139-0.446-0.139-0.74v-0.018
				c0-0.271,0.048-0.517,0.149-0.734c0.101-0.218,0.246-0.404,0.428-0.563c0.182-0.158,0.402-0.28,0.656-0.365
				c0.254-0.086,0.533-0.127,0.838-0.127c0.434,0,0.836,0.064,1.2,0.194c0.365,0.13,0.704,0.316,1.007,0.56l-0.679,0.986
				c-0.268-0.182-0.525-0.325-0.782-0.429c-0.254-0.107-0.508-0.158-0.763-0.158c-0.256,0-0.445,0.05-0.572,0.149
				c-0.13,0.099-0.191,0.221-0.191,0.369v0.017c0,0.098,0.018,0.18,0.054,0.25c0.036,0.072,0.104,0.136,0.201,0.191
				c0.095,0.057,0.229,0.11,0.395,0.161c0.169,0.051,0.381,0.112,0.635,0.179c0.3,0.08,0.568,0.169,0.805,0.268
				c0.234,0.1,0.433,0.218,0.595,0.356c0.16,0.138,0.284,0.302,0.363,0.488c0.085,0.188,0.126,0.41,0.126,0.672v0.016
				c0,0.295-0.055,0.556-0.161,0.786c-0.105,0.229-0.256,0.421-0.446,0.578c-0.192,0.154-0.419,0.271-0.683,0.356
				C55.351,67.763,55.057,67.805,54.733,67.805"/>
		</g>
		<polygon fill="#EC145A" points="57.778,61.777 57.778,62.983 59.586,62.983 59.586,67.72 60.896,67.72 60.896,62.983 
			62.703,62.983 62.703,61.777 		"/>
		<rect x="63.849" y="61.777" fill="#EC145A" width="1.307" height="5.942"/>
		<polygon fill="#EC145A" points="66.301,61.777 66.301,62.983 68.111,62.983 68.111,67.72 69.417,67.72 69.417,62.983 
			71.227,62.983 71.227,61.777 		"/>
		<g>
			<path fill="#EC145A" d="M74.862,67.813c-0.798,0-1.427-0.222-1.885-0.661c-0.457-0.443-0.689-1.102-0.689-1.979v-3.395h1.308
				v3.362c0,0.485,0.112,0.852,0.34,1.098c0.227,0.248,0.541,0.371,0.942,0.371c0.403,0,0.717-0.119,0.942-0.357
				c0.228-0.237,0.34-0.594,0.34-1.069v-3.404h1.308v3.353c0,0.452-0.063,0.847-0.183,1.181c-0.121,0.333-0.295,0.613-0.52,0.836
				c-0.227,0.226-0.504,0.39-0.825,0.501C75.619,67.757,75.258,67.813,74.862,67.813"/>
		</g>
		<polygon fill="#EC145A" points="78.531,61.777 78.531,62.983 80.341,62.983 80.341,67.72 81.645,67.72 81.645,62.983 
			83.456,62.983 83.456,61.777 		"/>
		<polygon fill="#EC145A" points="84.567,61.777 84.567,67.72 89.084,67.72 89.084,66.557 85.86,66.557 85.86,65.309 88.659,65.309 
			88.659,64.147 85.86,64.147 85.86,62.941 89.042,62.941 89.042,61.777 		"/>
	</g>
</g>
</svg>
